<svg width="1988" height="453" viewBox="0 0 1988 453" fill="none" xmlns="http://www.w3.org/2000/svg">
<path d="M517.51 377.469V86.5716H578.391V216.195H582.02L689.468 86.5716H757.203L651.166 214.179L764.662 377.469H691.686L607.219 255.707L578.391 289.777V377.469H517.51Z" fill="#1F0310"/>
<path d="M995.773 377.469H938.924V341.787H935.296C930.054 354.824 922.125 364.836 911.508 371.825C901.025 378.813 887.317 382.307 870.383 382.307C858.422 382.307 847.603 380.493 837.927 376.864C828.385 373.101 820.254 367.726 813.534 360.737C806.814 353.614 801.64 344.946 798.012 334.732C794.383 324.518 792.569 312.96 792.569 300.058V155.113H851.232V284.938C851.232 315.849 864.873 331.305 892.155 331.305C906.804 331.305 917.959 327.071 925.619 318.604C933.28 310.003 937.11 298.243 937.11 283.326V155.113H995.773V377.469Z" fill="#1F0310"/>
<path d="M1245.63 377.469H1188.78V341.787H1185.16C1179.91 354.824 1171.98 364.836 1161.37 371.825C1150.88 378.813 1137.18 382.307 1120.24 382.307C1108.28 382.307 1097.46 380.493 1087.79 376.864C1078.24 373.101 1070.11 367.726 1063.39 360.737C1056.67 353.614 1051.5 344.946 1047.87 334.732C1044.24 324.518 1042.43 312.96 1042.43 300.058V155.113H1101.09V284.938C1101.09 315.849 1114.73 331.305 1142.01 331.305C1156.66 331.305 1167.82 327.071 1175.48 318.604C1183.14 310.003 1186.97 298.243 1186.97 283.326V155.113H1245.63V377.469Z" fill="#1F0310"/>
<path d="M1294.3 155.113H1351.15V190.795H1354.78C1359.89 178.162 1367.95 168.284 1378.97 161.161C1390.13 153.903 1403.97 150.275 1420.5 150.275C1445.23 150.275 1464.04 157.532 1476.95 172.047C1489.98 186.561 1496.5 207.124 1496.5 233.734V377.469H1437.84V247.644C1437.84 232.188 1434.48 220.563 1427.76 212.768C1421.17 204.839 1410.89 200.874 1396.91 200.874C1390.06 200.874 1383.94 202.017 1378.57 204.301C1373.19 206.586 1368.56 209.879 1364.66 214.179C1360.9 218.346 1358.01 223.453 1355.99 229.5C1353.97 235.414 1352.97 241.999 1352.97 249.257V377.469H1294.3V155.113Z" fill="#1F0310"/>
<path d="M1622.98 380.896C1609.01 380.896 1596.37 378.276 1585.09 373.034C1573.93 367.658 1564.46 359.998 1556.66 350.053C1548.87 340.107 1542.89 328.079 1538.72 313.968C1534.55 299.722 1532.47 283.729 1532.47 265.989C1532.47 248.249 1534.55 232.323 1538.72 218.211C1542.89 204.1 1548.87 192.139 1556.66 182.328C1564.59 172.383 1574.13 164.789 1585.29 159.548C1596.44 154.172 1609.01 151.484 1622.98 151.484C1638.04 151.484 1651.41 154.911 1663.1 161.766C1674.79 168.62 1683.53 178.229 1689.31 190.593H1692.74V70.2427H1751.4V377.469H1694.55V342.594H1690.92C1687.96 348.641 1684.2 354.017 1679.63 358.721C1675.06 363.425 1669.82 367.457 1663.91 370.817C1658.13 374.042 1651.75 376.528 1644.76 378.276C1637.9 380.023 1630.65 380.896 1622.98 380.896ZM1642.94 200.673C1635.15 200.673 1628.16 202.218 1621.98 205.309C1615.79 208.266 1610.49 212.567 1606.05 218.211C1601.75 223.856 1598.46 230.71 1596.17 238.774C1593.89 246.837 1592.75 255.976 1592.75 266.19C1592.75 276.539 1593.89 285.812 1596.17 294.01C1598.46 302.074 1601.75 308.928 1606.05 314.572C1610.35 320.217 1615.59 324.518 1621.78 327.474C1627.96 330.431 1635.01 331.909 1642.94 331.909C1650.74 331.909 1657.73 330.431 1663.91 327.474C1670.22 324.383 1675.53 320.015 1679.83 314.371C1684.27 308.726 1687.63 301.872 1689.91 293.808C1692.2 285.745 1693.34 276.606 1693.34 266.392C1693.34 256.312 1692.13 247.241 1689.71 239.177C1687.43 230.979 1684.13 224.058 1679.83 218.413C1675.53 212.634 1670.22 208.266 1663.91 205.309C1657.73 202.218 1650.74 200.673 1642.94 200.673Z" fill="#1F0310"/>
<path d="M1882.32 336.748C1889.17 336.748 1895.49 335.74 1901.27 333.724C1907.05 331.708 1912.09 328.885 1916.39 325.257C1920.69 321.628 1924.05 317.395 1926.47 312.556C1928.89 307.718 1930.1 302.477 1930.1 296.832V280.503L1885.14 283.326C1860.14 285.073 1847.65 294.01 1847.65 310.137C1847.65 318.47 1850.87 324.988 1857.32 329.692C1863.77 334.396 1872.1 336.748 1882.32 336.748ZM1862.97 380.896C1852.21 380.896 1842.4 379.351 1833.53 376.26C1824.66 373.034 1817 368.532 1810.55 362.753C1804.1 356.84 1799.06 349.784 1795.43 341.586C1791.94 333.388 1790.19 324.182 1790.19 313.968C1790.19 293.674 1797.58 277.883 1812.37 266.593C1827.15 255.17 1848.45 248.652 1876.27 247.039L1930.1 243.814V225.67C1930.1 216.397 1926.87 209.274 1920.42 204.301C1914.1 199.194 1904.83 196.641 1892.6 196.641C1881.98 196.641 1873.25 198.388 1866.39 201.882C1859.54 205.377 1854.9 210.484 1852.48 217.203H1798.46C1799.4 206.989 1802.35 197.783 1807.33 189.585C1812.43 181.253 1819.22 174.197 1827.69 168.418C1836.15 162.505 1846.1 158.002 1857.52 154.911C1869.08 151.82 1881.85 150.275 1895.83 150.275C1910.47 150.275 1923.51 152.022 1934.93 155.516C1946.49 158.876 1956.17 163.781 1963.96 170.232C1971.76 176.683 1977.67 184.613 1981.7 194.02C1985.87 203.294 1987.95 213.844 1987.95 225.67V377.469H1931.1V348.44H1927.48C1921.7 358.654 1913.1 366.65 1901.67 372.429C1890.38 378.074 1877.48 380.896 1862.97 380.896Z" fill="#1F0310"/>
<circle cx="226.5" cy="226.5" r="226.5" fill="#73187F"/>
<path d="M125.003 72.5271V312.281L201.952 206.419V121.994C201.952 112.94 196.64 104.728 188.382 101.016L163.477 89.8214L125.003 72.5271Z" fill="white"/>
<path fill-rule="evenodd" clip-rule="evenodd" d="M228.208 182.359C228.208 182.359 248.741 154.527 259.922 149.523C259.966 149.5 260.013 149.474 260.064 149.446C261.901 148.45 268.573 144.832 281.961 144.832H348.077L271.748 246.467L228.208 182.359ZM125.001 372.672V325.691L228.207 182.359L271.747 246.468L179.635 372.672H125.001Z" fill="white"/>
<path d="M273.545 258.523L227.157 320.547C233.238 329.754 244.983 350.151 251.654 360.158C258.325 370.165 272.502 372.319 278.757 372.146H347.556L273.545 258.523Z" fill="white"/>
<path d="M203.067 372.665V351.466L195.886 361.89L188.562 372.665H203.067Z" fill="white"/>
</svg>
